<svg xmlns="http://www.w3.org/2000/svg" viewBox="0 0 64 64">
  <defs><linearGradient id="g" x1="8" y1="5" x2="56" y2="60" gradientUnits="userSpaceOnUse"><stop stop-color="#9989ff"/><stop offset="1" stop-color="#5741d7"/></linearGradient></defs>
  <rect width="64" height="64" rx="18" fill="url(#g)"/>
  <path d="M18 18h18c8 0 12 4 12 10 0 4-2 7-6 8 5 1 7 4 7 8 0 7-5 10-13 10H18V18Zm10 8v7h8c3 0 4-1 4-4 0-2-2-3-4-3h-8Zm0 14v7h9c3 0 4-1 4-4s-2-3-4-3h-9Z" fill="#fff"/>
  <circle cx="49" cy="15" r="6" fill="#55efbd"/>
</svg>
